<svg width="472" height="104" viewBox="0 0 472 104" fill="none" xmlns="http://www.w3.org/2000/svg">
<path d="M93.5 88.5V41.9545H113.591C117.045 41.9545 120.068 42.6364 122.659 44C125.25 45.3636 127.265 47.2803 128.705 49.75C130.144 52.2197 130.864 55.1061 130.864 58.4091C130.864 61.7424 130.121 64.6288 128.636 67.0682C127.167 69.5076 125.098 71.3864 122.432 72.7045C119.78 74.0227 116.682 74.6818 113.136 74.6818H101.136V64.8636H110.591C112.076 64.8636 113.341 64.6061 114.386 64.0909C115.447 63.5606 116.258 62.8106 116.818 61.8409C117.394 60.8712 117.682 59.7273 117.682 58.4091C117.682 57.0758 117.394 55.9394 116.818 55C116.258 54.0455 115.447 53.3182 114.386 52.8182C113.341 52.303 112.076 52.0455 110.591 52.0455H106.136V88.5H93.5ZM144.642 88.5V53.5909H156.824V60.2273H157.187C157.824 57.7727 158.831 55.9773 160.21 54.8409C161.604 53.7045 163.233 53.1364 165.096 53.1364C165.642 53.1364 166.18 53.1818 166.71 53.2727C167.255 53.3485 167.778 53.4621 168.278 53.6136V64.3182C167.657 64.1061 166.892 63.947 165.983 63.8409C165.074 63.7348 164.293 63.6818 163.642 63.6818C162.415 63.6818 161.308 63.9621 160.324 64.5227C159.354 65.0682 158.589 65.8409 158.028 66.8409C157.468 67.8258 157.187 68.9848 157.187 70.3182V88.5H144.642ZM196.079 89.1364C192.352 89.1364 189.14 88.4242 186.443 87C183.761 85.5606 181.693 83.5 180.238 80.8182C178.799 78.1212 178.079 74.8939 178.079 71.1364C178.079 67.5303 178.806 64.3788 180.261 61.6818C181.715 58.9848 183.768 56.8864 186.42 55.3864C189.072 53.8864 192.2 53.1364 195.806 53.1364C198.443 53.1364 200.829 53.5455 202.965 54.3636C205.102 55.1818 206.928 56.3712 208.443 57.9318C209.958 59.4773 211.125 61.3561 211.943 63.5682C212.761 65.7803 213.17 68.2727 213.17 71.0455V73.9545H181.988V67.0455H201.625C201.609 66.0455 201.352 65.1667 200.852 64.4091C200.367 63.6364 199.708 63.0379 198.875 62.6136C198.056 62.1742 197.125 61.9545 196.079 61.9545C195.064 61.9545 194.132 62.1742 193.284 62.6136C192.435 63.0379 191.753 63.6288 191.238 64.3864C190.738 65.1439 190.473 66.0303 190.443 67.0455V74.5C190.443 75.6212 190.678 76.6212 191.147 77.5C191.617 78.3788 192.291 79.0682 193.17 79.5682C194.049 80.0682 195.109 80.3182 196.352 80.3182C197.215 80.3182 198.003 80.197 198.715 79.9545C199.443 79.7121 200.064 79.3636 200.579 78.9091C201.094 78.4394 201.473 77.8788 201.715 77.2273H213.17C212.776 79.6515 211.844 81.7576 210.375 83.5455C208.905 85.3182 206.958 86.697 204.534 87.6818C202.125 88.6515 199.306 89.1364 196.079 89.1364ZM259.158 64.9545H247.613C247.552 64.2424 247.302 63.6288 246.863 63.1136C246.424 62.5985 245.855 62.2045 245.158 61.9318C244.477 61.6439 243.719 61.5 242.886 61.5C241.81 61.5 240.886 61.697 240.113 62.0909C239.34 62.4848 238.961 63.0455 238.977 63.7727C238.961 64.2879 239.181 64.7652 239.636 65.2045C240.105 65.6439 241.007 65.9848 242.34 66.2273L249.431 67.5C253.007 68.1515 255.666 69.25 257.408 70.7955C259.166 72.3258 260.052 74.3788 260.068 76.9545C260.052 79.4394 259.31 81.5985 257.84 83.4318C256.386 85.25 254.393 86.6591 251.863 87.6591C249.348 88.6439 246.477 89.1364 243.249 89.1364C237.916 89.1364 233.742 88.0455 230.727 85.8636C227.727 83.6818 226.052 80.803 225.704 77.2273H238.158C238.325 78.3333 238.871 79.1894 239.795 79.7955C240.734 80.3864 241.916 80.6818 243.34 80.6818C244.492 80.6818 245.439 80.4848 246.181 80.0909C246.939 79.697 247.325 79.1364 247.34 78.4091C247.325 77.7424 246.992 77.2121 246.34 76.8182C245.704 76.4242 244.704 76.1061 243.34 75.8636L237.158 74.7727C233.598 74.1515 230.931 72.9697 229.158 71.2273C227.386 69.4848 226.507 67.2424 226.522 64.5C226.507 62.0758 227.143 60.0227 228.431 58.3409C229.734 56.6439 231.59 55.3561 233.999 54.4773C236.424 53.5833 239.295 53.1364 242.613 53.1364C247.658 53.1364 251.636 54.1818 254.545 56.2727C257.469 58.3636 259.007 61.2576 259.158 64.9545ZM290.562 89.1364C286.834 89.1364 283.622 88.4242 280.925 87C278.243 85.5606 276.175 83.5 274.721 80.8182C273.281 78.1212 272.562 74.8939 272.562 71.1364C272.562 67.5303 273.289 64.3788 274.743 61.6818C276.198 58.9848 278.251 56.8864 280.902 55.3864C283.554 53.8864 286.683 53.1364 290.289 53.1364C292.925 53.1364 295.312 53.5455 297.448 54.3636C299.584 55.1818 301.41 56.3712 302.925 57.9318C304.44 59.4773 305.607 61.3561 306.425 63.5682C307.243 65.7803 307.652 68.2727 307.652 71.0455V73.9545H276.471V67.0455H296.107C296.092 66.0455 295.834 65.1667 295.334 64.4091C294.849 63.6364 294.19 63.0379 293.357 62.6136C292.539 62.1742 291.607 61.9545 290.562 61.9545C289.546 61.9545 288.615 62.1742 287.766 62.6136C286.918 63.0379 286.236 63.6288 285.721 64.3864C285.221 65.1439 284.956 66.0303 284.925 67.0455V74.5C284.925 75.6212 285.16 76.6212 285.63 77.5C286.099 78.3788 286.774 79.0682 287.652 79.5682C288.531 80.0682 289.592 80.3182 290.834 80.3182C291.698 80.3182 292.486 80.197 293.198 79.9545C293.925 79.7121 294.546 79.3636 295.062 78.9091C295.577 78.4394 295.956 77.8788 296.198 77.2273H307.652C307.259 79.6515 306.327 81.7576 304.857 83.5455C303.387 85.3182 301.44 86.697 299.016 87.6818C296.607 88.6515 293.789 89.1364 290.562 89.1364ZM334.277 68.8636V88.5H321.732V53.5909H333.641V60.2273H334.005C334.762 58.0152 336.095 56.2803 338.005 55.0227C339.929 53.7652 342.171 53.1364 344.732 53.1364C347.202 53.1364 349.345 53.7045 351.164 54.8409C352.997 55.9621 354.414 57.5076 355.414 59.4773C356.429 61.447 356.929 63.697 356.914 66.2273V88.5H344.368V68.8636C344.383 67.1364 343.944 65.7803 343.05 64.7955C342.171 63.8106 340.944 63.3182 339.368 63.3182C338.338 63.3182 337.436 63.5455 336.664 64C335.906 64.4394 335.323 65.0758 334.914 65.9091C334.505 66.7273 334.292 67.7121 334.277 68.8636ZM392.885 53.5909V62.6818H369.885V53.5909H392.885ZM374.34 45.2273H386.885V77.2727C386.885 77.7576 386.968 78.1667 387.135 78.5C387.302 78.8182 387.559 79.0606 387.908 79.2273C388.256 79.3788 388.703 79.4545 389.249 79.4545C389.627 79.4545 390.067 79.4091 390.567 79.3182C391.082 79.2273 391.461 79.1515 391.703 79.0909L393.521 87.9091C392.961 88.0758 392.158 88.2803 391.112 88.5227C390.082 88.7652 388.855 88.9242 387.43 89C384.552 89.1515 382.135 88.8561 380.18 88.1136C378.226 87.3561 376.756 86.1667 375.771 84.5455C374.787 82.9242 374.309 80.8939 374.34 78.4545V45.2273ZM420.26 41.9545V88.5H407.714V41.9545H420.26ZM443.248 101.591C441.809 101.591 440.438 101.477 439.135 101.25C437.832 101.038 436.688 100.742 435.703 100.364L438.43 91.4545C439.46 91.8182 440.4 92.053 441.248 92.1591C442.112 92.2652 442.847 92.2045 443.453 91.9773C444.074 91.75 444.521 91.3182 444.794 90.6818L445.066 90.0455L432.794 53.5909H445.885L451.521 77.7727H451.885L457.612 53.5909H470.794L458.066 91.4091C457.43 93.3333 456.506 95.0606 455.294 96.5909C454.097 98.1364 452.521 99.3561 450.566 100.25C448.612 101.144 446.172 101.591 443.248 101.591Z" fill="#116E63"/>
<path d="M36.0859 0.5C47.7285 0.5 57.3267 9.79104 57.3267 21.2861C57.3267 27.0787 55.2217 32.4564 51.7571 37.0144C47.935 42.0423 43.2241 46.4229 37.9214 49.8615C36.7078 50.6561 35.6125 50.7161 34.2806 49.8615C28.9477 46.4229 24.2368 42.0423 20.4474 37.0144C16.9802 32.4564 14.8778 27.0787 14.8778 21.2861C14.8778 9.79104 24.476 0.5 36.0859 0.5ZM36.0859 14.9363C32.236 14.9363 29.0963 18.1125 29.0963 21.9334C29.0963 25.7842 32.236 28.8129 36.0859 28.8129C39.9382 28.8129 43.1082 25.7842 43.1082 21.9334C43.1082 18.1125 39.9382 14.9363 36.0859 14.9363Z" fill="#F2A227"/>
<path d="M36.1879 102.5C31.4295 98.0059 25.9772 94.5693 19.8309 92.1901C13.6847 89.8109 7.24104 88.6213 0.5 88.6213V45.0028C7.17495 45.0028 13.5856 46.2089 19.7318 48.6212C25.878 51.0334 31.3634 54.5196 36.1879 59.0797C41.0123 54.5196 46.4977 51.0334 52.6439 48.6212C58.7902 46.2089 65.2008 45.0028 71.8757 45.0028V88.6213C65.0686 88.6213 58.6084 89.8109 52.4952 92.1901C46.382 94.5693 40.9463 98.0059 36.1879 102.5ZM36.1879 92.1901C40.3515 89.0839 44.7794 86.6056 49.4717 84.7551C54.164 82.9047 58.9885 81.682 63.9451 81.0872V53.7265C59.1206 54.5857 54.3788 56.3205 49.7195 58.931C45.0603 61.5415 40.5497 65.0277 36.1879 69.3895C31.826 65.0277 27.3155 61.5415 22.6562 58.931C17.997 56.3205 13.2551 54.5857 8.43064 53.7265V81.0872C13.3873 81.682 18.2118 82.9047 22.9041 84.7551C27.5963 86.6056 32.0243 89.0839 36.1879 92.1901Z" fill="#F2A227"/>
</svg>
