<svg width="33" height="33" viewBox="0 0 33 33" fill="none" xmlns="http://www.w3.org/2000/svg">
<path d="M29.8032 20.1641L27.6924 18.3594C27.7923 17.7471 27.8439 17.1219 27.8439 16.4967C27.8439 15.8715 27.7923 15.2463 27.6924 14.634L29.8032 12.8293C29.9624 12.693 30.0764 12.5115 30.1299 12.3089C30.1835 12.1062 30.174 11.8921 30.1029 11.695L30.0739 11.6112C29.4928 9.98704 28.6227 8.48144 27.5055 7.16714L27.4475 7.09946C27.3119 6.94011 27.1313 6.82556 26.9294 6.77091C26.7275 6.71625 26.5137 6.72406 26.3163 6.79331L23.6963 7.72466C22.7295 6.93188 21.6499 6.30669 20.4833 5.86841L19.9774 3.12915C19.9392 2.92304 19.8392 2.73342 19.6907 2.58548C19.5422 2.43755 19.3522 2.3383 19.1459 2.30093L19.0589 2.28481C17.3799 1.98188 15.6139 1.98188 13.9349 2.28481L13.8479 2.30093C13.6416 2.3383 13.4516 2.43755 13.3031 2.58548C13.1546 2.73342 13.0546 2.92304 13.0164 3.12915L12.5072 5.8813C11.3499 6.31969 10.2722 6.94455 9.3168 7.7311L6.67745 6.79331C6.48011 6.72351 6.26621 6.71542 6.06416 6.77011C5.86211 6.82479 5.68149 6.93966 5.5463 7.09946L5.48829 7.16714C4.37242 8.48237 3.5024 9.98772 2.91983 11.6112L2.89083 11.695C2.74581 12.0978 2.86505 12.549 3.19053 12.8293L5.32716 14.6534C5.22725 15.2592 5.17891 15.878 5.17891 16.4935C5.17891 17.1123 5.22725 17.731 5.32716 18.3336L3.19053 20.1577C3.03132 20.294 2.91737 20.4755 2.86383 20.6781C2.8103 20.8808 2.81971 21.0949 2.89083 21.292L2.91983 21.3758C3.50313 23 4.3668 24.4986 5.48829 25.8199L5.5463 25.8875C5.68182 26.0469 5.86245 26.1615 6.06438 26.2161C6.2663 26.2708 6.48005 26.2629 6.67745 26.1937L9.3168 25.2559C10.2772 26.0455 11.3503 26.6707 12.5072 27.1057L13.0164 29.8579C13.0546 30.064 13.1546 30.2536 13.3031 30.4015C13.4516 30.5495 13.6416 30.6487 13.8479 30.6861L13.9349 30.7022C15.6293 31.0068 17.3645 31.0068 19.0589 30.7022L19.1459 30.6861C19.3522 30.6487 19.5422 30.5495 19.6907 30.4015C19.8392 30.2536 19.9392 30.064 19.9774 29.8579L20.4833 27.1186C21.6494 26.6815 22.7351 26.0542 23.6963 25.2624L26.3163 26.1937C26.5137 26.2635 26.7276 26.2716 26.9296 26.2169C27.1316 26.1622 27.3123 26.0473 27.4475 25.8875L27.5055 25.8199C28.627 24.4954 29.4906 23 30.0739 21.3758L30.1029 21.292C30.248 20.8957 30.1287 20.4445 29.8032 20.1641ZM25.4043 15.0143C25.4849 15.5009 25.5268 16.0004 25.5268 16.5C25.5268 16.9995 25.4849 17.499 25.4043 17.9856L25.1916 19.2779L27.5989 21.3372C27.234 22.1779 26.7733 22.9738 26.2261 23.709L23.2355 22.6488L22.2235 23.4802C21.4533 24.1119 20.5961 24.6082 19.668 24.9562L18.4401 25.417L17.8633 28.543C16.9531 28.6461 16.0342 28.6461 15.124 28.543L14.5472 25.4106L13.329 24.9433C12.4106 24.5953 11.5566 24.099 10.7928 23.4706L9.78087 22.6359L6.77091 23.7058C6.22305 22.9678 5.76544 22.1718 5.39805 21.3339L7.83116 19.2553L7.62169 17.9663C7.54434 17.4861 7.50245 16.9898 7.50245 16.5C7.50245 16.0069 7.54112 15.5138 7.62169 15.0336L7.83116 13.7446L5.39805 11.666C5.76221 10.8249 6.22305 10.0321 6.77091 9.29409L9.78087 10.364L10.7928 9.52935C11.5566 8.90093 12.4106 8.40464 13.329 8.05659L14.5504 7.59575L15.1273 4.46333C16.0328 4.36021 16.9577 4.36021 17.8665 4.46333L18.4434 7.58931L19.6712 8.05015C20.5961 8.39819 21.4566 8.89448 22.2268 9.52612L23.2387 10.3576L26.2293 9.29731C26.7772 10.0353 27.2348 10.8313 27.6022 11.6692L25.1948 13.7285L25.4043 15.0143ZM16.5001 10.5058C13.3677 10.5058 10.8282 13.0453 10.8282 16.1777C10.8282 19.3101 13.3677 21.8496 16.5001 21.8496C19.6325 21.8496 22.172 19.3101 22.172 16.1777C22.172 13.0453 19.6325 10.5058 16.5001 10.5058ZM19.0524 18.73C18.7177 19.0658 18.3198 19.332 17.8818 19.5134C17.4438 19.6948 16.9742 19.7878 16.5001 19.7871C15.5365 19.7871 14.631 19.41 13.9478 18.73C13.612 18.3953 13.3458 17.9974 13.1644 17.5594C12.983 17.1214 12.89 16.6518 12.8907 16.1777C12.8907 15.2141 13.2678 14.3085 13.9478 13.6253C14.631 12.9421 15.5365 12.5683 16.5001 12.5683C17.4637 12.5683 18.3692 12.9421 19.0524 13.6253C19.3882 13.9601 19.6544 14.3579 19.8358 14.796C20.0172 15.234 20.1102 15.7036 20.1095 16.1777C20.1095 17.1413 19.7324 18.0468 19.0524 18.73Z" fill="#323232"/>
</svg>
