<svg width="33" height="33" viewBox="0 0 33 33" fill="none" xmlns="http://www.w3.org/2000/svg">
<path d="M16.4999 22H16.5123M12.4602 6.63575L4.45356 13.6414C3.76606 14.2422 4.22806 15.3092 5.17269 15.3092C5.75019 15.3092 6.21906 15.7424 6.21906 16.2759V20.7364C6.21906 24.5726 6.21906 26.4907 7.51019 27.6829C8.79994 28.875 10.8762 28.875 15.0314 28.875H17.9684C22.1223 28.875 24.1999 28.875 25.4897 27.6829C26.7808 26.4907 26.7808 24.5726 26.7808 20.7364V16.2759C26.7808 15.7424 27.2483 15.3092 27.8258 15.3092C28.7718 15.3092 29.2324 14.2422 28.5463 13.6414L20.5397 6.63575C18.6271 4.96375 17.6701 4.125 16.4999 4.125C15.3298 4.125 14.3728 4.96238 12.4602 6.63575Z" stroke="#116E63" stroke-width="2" stroke-linecap="round" stroke-linejoin="round"/>
</svg>
