<svg width="33" height="40" viewBox="0 0 33 40" fill="none" xmlns="http://www.w3.org/2000/svg">
<path d="M9.40383 26.4834C9.05092 26.2422 8.77042 25.9145 8.56233 25.5C8.35425 25.0845 8.25021 24.6189 8.25021 24.1033V17.6417L6.06121 16.17C5.86137 16.0256 5.71287 15.8545 5.61571 15.6567C5.51854 15.4589 5.47087 15.24 5.47271 15C5.47454 14.76 5.52312 14.5411 5.61846 14.3434C5.71379 14.1456 5.86183 13.9745 6.06258 13.83L15.4401 7.63002C15.6069 7.5178 15.7788 7.4378 15.9557 7.39002C16.1326 7.34224 16.3141 7.3178 16.5002 7.31669C16.6863 7.31558 16.8682 7.34002 17.0461 7.39002C17.2239 7.44002 17.3962 7.51946 17.5631 7.62835L28.1795 14.6067C28.3738 14.7456 28.5205 14.9195 28.6195 15.1284C28.7194 15.3384 28.7693 15.565 28.7693 15.8084V24.8083C28.7693 25.0439 28.7033 25.2417 28.5713 25.4017C28.4393 25.5617 28.2762 25.6417 28.0818 25.6417C27.8875 25.6417 27.7239 25.5617 27.591 25.4017C27.458 25.2417 27.3925 25.0439 27.3943 24.8083V15.9367L24.7502 17.6417V24.1033C24.7502 24.6189 24.6462 25.0845 24.4381 25.5C24.23 25.9156 23.95 26.2434 23.598 26.4834L17.5686 30.44C17.3981 30.5567 17.2239 30.6395 17.0461 30.6883C16.8682 30.7372 16.6863 30.7611 16.5002 30.76C16.3141 30.7589 16.1322 30.735 15.9543 30.6883C15.7765 30.6417 15.6023 30.5583 15.4318 30.4384L9.40383 26.4834ZM16.1826 20.975C16.3063 21.0595 16.4163 21.1017 16.5126 21.1017C16.6097 21.1017 16.7202 21.0595 16.844 20.975L25.8915 15L16.844 9.05835C16.7211 8.9728 16.6111 8.93002 16.514 8.93002C16.4168 8.93002 16.3068 8.9728 16.184 9.05835L7.10896 15L16.1826 20.975ZM16.1565 29.0283C16.2802 29.1139 16.3948 29.1567 16.5002 29.1567C16.6056 29.1567 16.7202 29.1139 16.844 29.0283L22.9792 25.01C23.1204 24.9033 23.2212 24.7806 23.2817 24.6417C23.3422 24.5028 23.3734 24.3261 23.3752 24.1117V18.5584L17.5768 22.395C17.4054 22.5117 17.2312 22.5945 17.0543 22.6434C16.8792 22.6911 16.6945 22.715 16.5002 22.715C16.3059 22.715 16.1207 22.6911 15.9447 22.6434C15.7687 22.5956 15.595 22.5122 15.4236 22.3934L9.62521 18.56V24.1134C9.62521 24.2845 9.65592 24.4506 9.71733 24.6117C9.77875 24.7717 9.88004 24.905 10.0212 25.0117L16.1565 29.0283Z" fill="#323232"/>
</svg>
