<svg width="33" height="33" viewBox="0 0 33 33" fill="none" xmlns="http://www.w3.org/2000/svg">
<path d="M28 16.75C28 17.1147 27.8551 17.4644 27.5973 17.7223C27.3394 17.9801 26.9897 18.125 26.625 18.125H16.1887L19.3512 21.2738C19.4801 21.4016 19.5824 21.5536 19.6522 21.7212C19.722 21.8888 19.758 22.0685 19.758 22.25C19.758 22.4315 19.722 22.6112 19.6522 22.7788C19.5824 22.9464 19.4801 23.0984 19.3512 23.2262C19.2234 23.3551 19.0713 23.4574 18.9038 23.5272C18.7362 23.597 18.5565 23.633 18.375 23.633C18.1935 23.633 18.0138 23.597 17.8462 23.5272C17.6787 23.4574 17.5266 23.3551 17.3988 23.2262L11.8988 17.7262C11.7736 17.5955 11.6754 17.4413 11.61 17.2725C11.4725 16.9377 11.4725 16.5623 11.61 16.2275C11.6754 16.0587 11.7736 15.9045 11.8988 15.7738L17.3988 10.2737C17.527 10.1455 17.6792 10.0439 17.8467 9.97447C18.0142 9.90509 18.1937 9.86937 18.375 9.86937C18.5563 9.86937 18.7358 9.90509 18.9033 9.97447C19.0708 10.0439 19.223 10.1455 19.3512 10.2737C19.4795 10.402 19.5811 10.5542 19.6505 10.7217C19.7199 10.8892 19.7556 11.0687 19.7556 11.25C19.7556 11.4313 19.7199 11.6108 19.6505 11.7783C19.5811 11.9458 19.4795 12.098 19.3512 12.2262L16.1887 15.375H26.625C26.9897 15.375 27.3394 15.5199 27.5973 15.7777C27.8551 16.0356 28 16.3853 28 16.75ZM10.125 3H23.875C24.969 3 26.0182 3.4346 26.7918 4.20818C27.5654 4.98177 28 6.03098 28 7.125V11.25C28 11.6147 27.8551 11.9644 27.5973 12.2223C27.3394 12.4801 26.9897 12.625 26.625 12.625C26.2603 12.625 25.9106 12.4801 25.6527 12.2223C25.3949 11.9644 25.25 11.6147 25.25 11.25V7.125C25.25 6.76033 25.1051 6.41059 24.8473 6.15273C24.5894 5.89487 24.2397 5.75 23.875 5.75H10.125C9.76033 5.75 9.41059 5.89487 9.15273 6.15273C8.89487 6.41059 8.75 6.76033 8.75 7.125V26.375C8.75 26.7397 8.89487 27.0894 9.15273 27.3473C9.41059 27.6051 9.76033 27.75 10.125 27.75H23.875C24.2397 27.75 24.5894 27.6051 24.8473 27.3473C25.1051 27.0894 25.25 26.7397 25.25 26.375V22.25C25.25 21.8853 25.3949 21.5356 25.6527 21.2777C25.9106 21.0199 26.2603 20.875 26.625 20.875C26.9897 20.875 27.3394 21.0199 27.5973 21.2777C27.8551 21.5356 28 21.8853 28 22.25V26.375C28 27.469 27.5654 28.5182 26.7918 29.2918C26.0182 30.0654 24.969 30.5 23.875 30.5H10.125C9.03098 30.5 7.98177 30.0654 7.20818 29.2918C6.4346 28.5182 6 27.469 6 26.375V7.125C6 6.03098 6.4346 4.98177 7.20818 4.20818C7.98177 3.4346 9.03098 3 10.125 3Z" fill="#323232"/>
</svg>
